<svg version="1.1" viewBox="0.0 0.0 960.0 540.0" fill="none" stroke="none" stroke-linecap="square" stroke-miterlimit="10" xmlns:xlink="http://www.w3.org/1999/xlink" xmlns="http://www.w3.org/2000/svg"><clipPath id="p.0"><path d="m0 0l960.0 0l0 540.0l-960.0 0l0 -540.0z" clip-rule="nonzero"/></clipPath><g clip-path="url(#p.0)"><path fill="#ffffff" d="m0 0l960.0 0l0 540.0l-960.0 0z" fill-rule="evenodd"/><path shape-rendering="crispEdges" fill="#b491ae" d="m-0.005249344 0l192.0 0l0 108.0l-192.0 0l0 -108.0z" fill-rule="nonzero"/><path shape-rendering="crispEdges" fill="#bf7f7a" d="m191.99475 0l192.0 0l0 108.0l-192.0 0l0 -108.0z" fill-rule="nonzero"/><path shape-rendering="crispEdges" fill="#cc9bab" d="m383.99475 0l192.0 0l0 108.0l-192.0 0l0 -108.0z" fill-rule="nonzero"/><path shape-rendering="crispEdges" fill="#c39bcc" d="m575.99475 0l192.0 0l0 108.0l-192.0 0l0 -108.0z" fill-rule="nonzero"/><path shape-rendering="crispEdges" fill="#ad93c2" d="m767.99475 0l192.0 0l0 108.0l-192.0 0l0 -108.0z" fill-rule="nonzero"/><path shape-rendering="crispEdges" fill="#668f80" d="m-0.005249344 108.0l192.0 0l0 108.0l-192.0 0l0 -108.0z" fill-rule="nonzero"/><path shape-rendering="crispEdges" fill="#67929c" d="m191.99475 108.0l192.0 0l0 108.0l-192.0 0l0 -108.0z" fill-rule="nonzero"/><path shape-rendering="crispEdges" fill="#6da6a1" d="m383.99475 108.0l192.0 0l0 108.0l-192.0 0l0 -108.0z" fill-rule="nonzero"/><path shape-rendering="crispEdges" fill="#6da681" d="m575.99475 108.0l192.0 0l0 108.0l-192.0 0l0 -108.0z" fill-rule="nonzero"/><path shape-rendering="crispEdges" fill="#679c6a" d="m767.99475 108.0l192.0 0l0 108.0l-192.0 0l0 -108.0z" fill-rule="nonzero"/><path shape-rendering="crispEdges" fill="#4a6670" d="m-0.005249344 216.0l192.0 0l0 108.0l-192.0 0l0 -108.0z" fill-rule="nonzero"/><path shape-rendering="crispEdges" fill="#4c567d" d="m191.99475 216.0l192.0 0l0 108.0l-192.0 0l0 -108.0z" fill-rule="nonzero"/><path shape-rendering="crispEdges" fill="#526b87" d="m383.99475 216.0l192.0 0l0 108.0l-192.0 0l0 -108.0z" fill-rule="nonzero"/><path shape-rendering="crispEdges" fill="#528787" d="m575.99475 216.0l192.0 0l0 108.0l-192.0 0l0 -108.0z" fill-rule="nonzero"/><path shape-rendering="crispEdges" fill="#4c7d6f" d="m767.99475 216.0l192.0 0l0 108.0l-192.0 0l0 -108.0z" fill-rule="nonzero"/><path shape-rendering="crispEdges" fill="#d6a2ad" d="m-0.005249344 324.0l192.0 0l0 108.0l-192.0 0l0 -108.0z" fill-rule="nonzero"/><path shape-rendering="crispEdges" fill="#e3b0a1" d="m191.99475 324.0l192.0 0l0 108.0l-192.0 0l0 -108.0z" fill-rule="nonzero"/><path shape-rendering="crispEdges" fill="#edaea8" d="m383.99475 324.0l192.0 0l0 108.0l-192.0 0l0 -108.0z" fill-rule="nonzero"/><path shape-rendering="crispEdges" fill="#eda8da" d="m575.99475 324.0l192.0 0l0 108.0l-192.0 0l0 -108.0z" fill-rule="nonzero"/><path shape-rendering="crispEdges" fill="#dba1e3" d="m767.99475 324.0l192.0 0l0 108.0l-192.0 0l0 -108.0z" fill-rule="nonzero"/><path shape-rendering="crispEdges" fill="#75577d" d="m-0.005249344 432.0l192.0 0l0 108.0l-192.0 0l0 -108.0z" fill-rule="nonzero"/><path shape-rendering="crispEdges" fill="#8a5a6d" d="m191.99475 432.0l192.0 0l0 108.0l-192.0 0l0 -108.0z" fill-rule="nonzero"/><path shape-rendering="crispEdges" fill="#94608f" d="m383.99475 432.0l192.0 0l0 108.0l-192.0 0l0 -108.0z" fill-rule="nonzero"/><path shape-rendering="crispEdges" fill="#7b6094" d="m575.99475 432.0l192.0 0l0 108.0l-192.0 0l0 -108.0z" fill-rule="nonzero"/><path shape-rendering="crispEdges" fill="#655a8a" d="m767.99475 432.0l192.0 0l0 108.0l-192.0 0l0 -108.0z" fill-rule="nonzero"/><path stroke="#ffffff" stroke-width="1.0" stroke-linecap="butt" d="m-0.005249344 -0.49868765l0 540.9973" fill-rule="nonzero"/><path stroke="#ffffff" stroke-width="1.0" stroke-linecap="butt" d="m191.99475 -0.49868765l0 540.9973" fill-rule="nonzero"/><path stroke="#ffffff" stroke-width="1.0" stroke-linecap="butt" d="m383.99475 -0.49868765l0 540.9973" fill-rule="nonzero"/><path stroke="#ffffff" stroke-width="1.0" stroke-linecap="butt" d="m575.99475 -0.49868765l0 540.9973" fill-rule="nonzero"/><path stroke="#ffffff" stroke-width="1.0" stroke-linecap="butt" d="m767.99475 -0.49868765l0 540.9973" fill-rule="nonzero"/><path stroke="#ffffff" stroke-width="1.0" stroke-linecap="butt" d="m959.99475 -0.49868765l0 540.9973" fill-rule="nonzero"/><path stroke="#ffffff" stroke-width="1.0" stroke-linecap="butt" d="m-0.503937 0l960.9974 0" fill-rule="nonzero"/><path stroke="#ffffff" stroke-width="1.0" stroke-linecap="butt" d="m-0.503937 108.0l960.9974 0" fill-rule="nonzero"/><path stroke="#ffffff" stroke-width="1.0" stroke-linecap="butt" d="m-0.503937 216.0l960.9974 0" fill-rule="nonzero"/><path stroke="#ffffff" stroke-width="1.0" stroke-linecap="butt" d="m-0.503937 324.0l960.9974 0" fill-rule="nonzero"/><path stroke="#ffffff" stroke-width="1.0" stroke-linecap="butt" d="m-0.503937 432.0l960.9974 0" fill-rule="nonzero"/><path stroke="#ffffff" stroke-width="1.0" stroke-linecap="butt" d="m-0.503937 540.0l960.9974 0" fill-rule="nonzero"/><path fill="#000000" d="m96.467865 59.760002l0 -9.140625l-2.6875 1.796875l-0.578125 -0.96875l3.359375 -2.25l1.1875 0l0 10.5625l-1.28125 0z" fill-rule="nonzero"/><path fill="#000000" d="m283.69986 59.760002l0 -9.140625l-2.6875 1.796875l-0.578125 -0.96875l3.359375 -2.25l1.1875 0l0 10.5625l-1.28125 0zm4.381897 0l3.015625 -11.0625l2.765625 0l3.015625 11.0625l-1.28125 0l-0.78125 -2.796875l-4.671875 0l-0.796875 2.796875l-1.265625 0zm2.328125 -3.9375l4.125 0l-1.640625 -6.03125l-0.828125 0l-1.65625 6.03125z" fill-rule="nonzero"/><path fill="#000000" d="m475.54785 59.760002l0 -9.140625l-2.6875 1.796875l-0.578125 -0.96875l3.359375 -2.25l1.1875 0l0 10.5625l-1.28125 0zm5.350647 0l0 -11.0625l4.03125 0q1.09375 0 1.8125 0.296875q0.734375 0.28125 1.109375 0.90625q0.375 0.625 0.375 1.625q0 0.703125 -0.171875 1.1875q-0.15625 0.484375 -0.46875 0.8125q-0.296875 0.3125 -0.75 0.53125q0.484375 0.171875 0.875 0.484375q0.390625 0.296875 0.625 0.8125q0.234375 0.5 0.234375 1.296875q0 0.875 -0.25 1.46875q-0.234375 0.59375 -0.703125 0.96875q-0.453125 0.359375 -1.078125 0.515625q-0.625 0.15625 -1.421875 0.15625l-4.21875 0zm1.28125 -1.125l2.890625 0q0.671875 0 1.15625 -0.171875q0.5 -0.171875 0.765625 -0.609375q0.28125 -0.453125 0.28125 -1.25q0 -0.625 -0.234375 -1.0q-0.234375 -0.390625 -0.59375 -0.578125q-0.34375 -0.1875 -0.734375 -0.25q-0.375 -0.078125 -0.703125 -0.078125l-2.828125 0l0 3.9375zm0 -5.046875l2.8125 0q0.6875 0 1.109375 -0.21875q0.421875 -0.21875 0.625 -0.640625q0.203125 -0.4375 0.203125 -1.09375q0 -0.953125 -0.5 -1.375q-0.5 -0.4375 -1.546875 -0.4375l-2.703125 0l0 3.765625z" fill-rule="nonzero"/><path fill="#000000" d="m668.11584 59.760002l0 -9.140625l-2.6875 1.796875l-0.578125 -0.96875l3.359375 -2.25l1.1875 0l0 10.5625l-1.28125 0zm8.991272 0.15625q-1.234375 0 -2.03125 -0.359375q-0.796875 -0.375 -1.25 -1.09375q-0.4375 -0.71875 -0.609375 -1.765625q-0.171875 -1.0625 -0.171875 -2.4375q0 -1.40625 0.171875 -2.484375q0.171875 -1.078125 0.609375 -1.796875q0.453125 -0.71875 1.25 -1.078125q0.796875 -0.375 2.03125 -0.375q0.578125 0 1.140625 0.0625q0.578125 0.046875 1.078125 0.140625q0.5 0.09375 0.84375 0.171875l-0.046875 1.0625q-0.359375 -0.0625 -0.875 -0.125q-0.5 -0.0625 -1.03125 -0.109375q-0.53125 -0.046875 -0.953125 -0.046875q-0.921875 0 -1.484375 0.28125q-0.5625 0.265625 -0.875 0.828125q-0.296875 0.5625 -0.421875 1.421875q-0.109375 0.859375 -0.109375 2.046875q0 1.140625 0.109375 2.0q0.125 0.859375 0.421875 1.421875q0.296875 0.546875 0.859375 0.828125q0.578125 0.265625 1.515625 0.265625q0.671875 0 1.46875 -0.09375q0.8125 -0.09375 1.375 -0.1875l0.046875 1.09375q-0.390625 0.078125 -0.90625 0.15625q-0.5 0.078125 -1.0625 0.125q-0.5625 0.046875 -1.09375 0.046875z" fill-rule="nonzero"/><path fill="#000000" d="m859.31586 59.760002l0 -9.140625l-2.6875 1.796875l-0.578125 -0.96875l3.359375 -2.25l1.1875 0l0 10.5625l-1.28125 0zm5.350647 0l0 -11.0625l3.953125 0q1.21875 0 2.015625 0.40625q0.796875 0.390625 1.265625 1.109375q0.46875 0.703125 0.65625 1.6875q0.1875 0.984375 0.1875 2.15625q0 1.203125 -0.1875 2.234375q-0.171875 1.03125 -0.640625 1.828125q-0.46875 0.78125 -1.265625 1.21875q-0.796875 0.421875 -2.03125 0.421875l-3.953125 0zm1.28125 -1.140625l2.671875 0q0.859375 0 1.40625 -0.359375q0.546875 -0.375 0.84375 -1.015625q0.3125 -0.640625 0.421875 -1.453125q0.125 -0.8125 0.125 -1.734375q0 -0.890625 -0.125 -1.65625q-0.109375 -0.765625 -0.421875 -1.34375q-0.296875 -0.578125 -0.84375 -0.890625q-0.546875 -0.328125 -1.40625 -0.328125l-2.671875 0l0 8.78125z" fill-rule="nonzero"/><path fill="#000000" d="m92.624115 167.76001l0 -1.09375l3.03125 -3.171875q0.65625 -0.6875 1.140625 -1.234375q0.484375 -0.5625 0.734375 -1.09375q0.25 -0.546875 0.25 -1.15625q0 -1.03125 -0.5625 -1.421875q-0.5625 -0.390625 -1.703125 -0.390625q-0.421875 0 -0.9375 0.0625q-0.5 0.046875 -0.984375 0.125q-0.46875 0.0625 -0.796875 0.140625l-0.09375 -1.046875q0.328125 -0.109375 0.828125 -0.203125q0.5 -0.09375 1.078125 -0.15625q0.59375 -0.078125 1.140625 -0.078125q1.6875 0 2.515625 0.671875q0.84375 0.671875 0.84375 2.15625q0 0.78125 -0.25 1.40625q-0.234375 0.625 -0.734375 1.234375q-0.484375 0.59375 -1.234375 1.328125l-2.765625 2.796875l5.25 0l0 1.125l-6.75 0z" fill-rule="nonzero"/><path fill="#000000" d="m279.8561 167.76001l0 -1.09375l3.03125 -3.171875q0.65625 -0.6875 1.140625 -1.234375q0.484375 -0.5625 0.734375 -1.09375q0.25 -0.546875 0.25 -1.15625q0 -1.03125 -0.5625 -1.421875q-0.5625 -0.390625 -1.703125 -0.390625q-0.421875 0 -0.9375 0.0625q-0.5 0.046875 -0.984375 0.125q-0.46875 0.0625 -0.796875 0.140625l-0.09375 -1.046875q0.328125 -0.109375 0.828125 -0.203125q0.5 -0.09375 1.078125 -0.15625q0.59375 -0.078125 1.140625 -0.078125q1.6875 0 2.515625 0.671875q0.84375 0.671875 0.84375 2.15625q0 0.78125 -0.25 1.40625q-0.234375 0.625 -0.734375 1.234375q-0.484375 0.59375 -1.234375 1.328125l-2.765625 2.796875l5.25 0l0 1.125l-6.75 0zm8.225647 0l3.015625 -11.0625l2.765625 0l3.015625 11.0625l-1.28125 0l-0.78125 -2.796875l-4.671875 0l-0.796875 2.796875l-1.265625 0zm2.328125 -3.9375l4.125 0l-1.640625 -6.03125l-0.828125 0l-1.65625 6.03125z" fill-rule="nonzero"/><path fill="#000000" d="m471.7041 167.76001l0 -1.09375l3.03125 -3.171875q0.65625 -0.6875 1.140625 -1.234375q0.484375 -0.5625 0.734375 -1.09375q0.25 -0.546875 0.25 -1.15625q0 -1.03125 -0.5625 -1.421875q-0.5625 -0.390625 -1.703125 -0.390625q-0.421875 0 -0.9375 0.0625q-0.5 0.046875 -0.984375 0.125q-0.46875 0.0625 -0.796875 0.140625l-0.09375 -1.046875q0.328125 -0.109375 0.828125 -0.203125q0.5 -0.09375 1.078125 -0.15625q0.59375 -0.078125 1.140625 -0.078125q1.6875 0 2.515625 0.671875q0.84375 0.671875 0.84375 2.15625q0 0.78125 -0.25 1.40625q-0.234375 0.625 -0.734375 1.234375q-0.484375 0.59375 -1.234375 1.328125l-2.765625 2.796875l5.25 0l0 1.125l-6.75 0zm9.194397 0l0 -11.0625l4.03125 0q1.09375 0 1.8125 0.296875q0.734375 0.28125 1.109375 0.90625q0.375 0.625 0.375 1.625q0 0.703125 -0.171875 1.1875q-0.15625 0.484375 -0.46875 0.8125q-0.296875 0.3125 -0.75 0.53125q0.484375 0.171875 0.875 0.484375q0.390625 0.296875 0.625 0.8125q0.234375 0.5 0.234375 1.296875q0 0.875 -0.25 1.46875q-0.234375 0.59375 -0.703125 0.96875q-0.453125 0.359375 -1.078125 0.515625q-0.625 0.15625 -1.421875 0.15625l-4.21875 0zm1.28125 -1.125l2.890625 0q0.671875 0 1.15625 -0.171875q0.5 -0.171875 0.765625 -0.609375q0.28125 -0.453125 0.28125 -1.25q0 -0.625 -0.234375 -1.0q-0.234375 -0.390625 -0.59375 -0.578125q-0.34375 -0.1875 -0.734375 -0.25q-0.375 -0.078125 -0.703125 -0.078125l-2.828125 0l0 3.9375zm0 -5.046875l2.8125 0q0.6875 0 1.109375 -0.21875q0.421875 -0.21875 0.625 -0.640625q0.203125 -0.4375 0.203125 -1.09375q0 -0.953125 -0.5 -1.375q-0.5 -0.4375 -1.546875 -0.4375l-2.703125 0l0 3.765625z" fill-rule="nonzero"/><path fill="#000000" d="m664.2721 167.76001l0 -1.09375l3.03125 -3.171875q0.65625 -0.6875 1.140625 -1.234375q0.484375 -0.5625 0.734375 -1.09375q0.25 -0.546875 0.25 -1.15625q0 -1.03125 -0.5625 -1.421875q-0.5625 -0.390625 -1.703125 -0.390625q-0.421875 0 -0.9375 0.0625q-0.5 0.046875 -0.984375 0.125q-0.46875 0.0625 -0.796875 0.140625l-0.09375 -1.046875q0.328125 -0.109375 0.828125 -0.203125q0.5 -0.09375 1.078125 -0.15625q0.59375 -0.078125 1.140625 -0.078125q1.6875 0 2.515625 0.671875q0.84375 0.671875 0.84375 2.15625q0 0.78125 -0.25 1.40625q-0.234375 0.625 -0.734375 1.234375q-0.484375 0.59375 -1.234375 1.328125l-2.765625 2.796875l5.25 0l0 1.125l-6.75 0zm12.835022 0.15625q-1.234375 0 -2.03125 -0.359375q-0.796875 -0.375 -1.25 -1.09375q-0.4375 -0.71875 -0.609375 -1.765625q-0.171875 -1.0625 -0.171875 -2.4375q0 -1.40625 0.171875 -2.484375q0.171875 -1.078125 0.609375 -1.796875q0.453125 -0.71875 1.25 -1.078125q0.796875 -0.375 2.03125 -0.375q0.578125 0 1.140625 0.0625q0.578125 0.046875 1.078125 0.140625q0.5 0.09375 0.84375 0.171875l-0.046875 1.0625q-0.359375 -0.0625 -0.875 -0.125q-0.5 -0.0625 -1.03125 -0.109375q-0.53125 -0.046875 -0.953125 -0.046875q-0.921875 0 -1.484375 0.28125q-0.5625 0.265625 -0.875 0.828125q-0.296875 0.5625 -0.421875 1.421875q-0.109375 0.859375 -0.109375 2.046875q0 1.140625 0.109375 2.0q0.125 0.859375 0.421875 1.421875q0.296875 0.546875 0.859375 0.828125q0.578125 0.265625 1.515625 0.265625q0.671875 0 1.46875 -0.09375q0.8125 -0.09375 1.375 -0.1875l0.046875 1.09375q-0.390625 0.078125 -0.90625 0.15625q-0.5 0.078125 -1.0625 0.125q-0.5625 0.046875 -1.09375 0.046875z" fill-rule="nonzero"/><path fill="#000000" d="m855.4721 167.76001l0 -1.09375l3.03125 -3.171875q0.65625 -0.6875 1.140625 -1.234375q0.484375 -0.5625 0.734375 -1.09375q0.25 -0.546875 0.25 -1.15625q0 -1.03125 -0.5625 -1.421875q-0.5625 -0.390625 -1.703125 -0.390625q-0.421875 0 -0.9375 0.0625q-0.5 0.046875 -0.984375 0.125q-0.46875 0.0625 -0.796875 0.140625l-0.09375 -1.046875q0.328125 -0.109375 0.828125 -0.203125q0.5 -0.09375 1.078125 -0.15625q0.59375 -0.078125 1.140625 -0.078125q1.6875 0 2.515625 0.671875q0.84375 0.671875 0.84375 2.15625q0 0.78125 -0.25 1.40625q-0.234375 0.625 -0.734375 1.234375q-0.484375 0.59375 -1.234375 1.328125l-2.765625 2.796875l5.25 0l0 1.125l-6.75 0zm9.194397 0l0 -11.0625l3.953125 0q1.21875 0 2.015625 0.40625q0.796875 0.390625 1.265625 1.109375q0.46875 0.703125 0.65625 1.6875q0.1875 0.984375 0.1875 2.15625q0 1.203125 -0.1875 2.234375q-0.171875 1.03125 -0.640625 1.828125q-0.46875 0.78125 -1.265625 1.21875q-0.796875 0.421875 -2.03125 0.421875l-3.953125 0zm1.28125 -1.140625l2.671875 0q0.859375 0 1.40625 -0.359375q0.546875 -0.375 0.84375 -1.015625q0.3125 -0.640625 0.421875 -1.453125q0.125 -0.8125 0.125 -1.734375q0 -0.890625 -0.125 -1.65625q-0.109375 -0.765625 -0.421875 -1.34375q-0.296875 -0.578125 -0.84375 -0.890625q-0.546875 -0.328125 -1.40625 -0.328125l-2.671875 0l0 8.78125z" fill-rule="nonzero"/><path fill="#000000" d="m95.967865 275.91626q-0.609375 0 -1.265625 -0.078125q-0.65625 -0.0625 -1.234375 -0.15625q-0.578125 -0.09375 -0.96875 -0.1875l0.125 -1.046875q0.359375 0.0625 0.90625 0.140625q0.546875 0.078125 1.15625 0.140625q0.609375 0.0625 1.140625 0.0625q1.15625 0 1.703125 -0.5q0.5625 -0.515625 0.5625 -1.5q0 -0.734375 -0.296875 -1.140625q-0.28125 -0.421875 -0.765625 -0.609375q-0.484375 -0.1875 -1.078125 -0.203125l-2.140625 0l0 -1.109375l2.140625 0q0.390625 0 0.828125 -0.21875q0.453125 -0.234375 0.75 -0.65625q0.296875 -0.421875 0.296875 -1.015625q0 -0.890625 -0.484375 -1.28125q-0.484375 -0.390625 -1.640625 -0.390625q-0.53125 0 -1.078125 0.0625q-0.546875 0.046875 -1.046875 0.125q-0.484375 0.0625 -0.796875 0.140625l-0.109375 -1.015625q0.3125 -0.109375 0.8125 -0.203125q0.515625 -0.109375 1.09375 -0.171875q0.59375 -0.078125 1.171875 -0.078125q1.265625 0 2.0 0.296875q0.75 0.296875 1.078125 0.90625q0.328125 0.609375 0.328125 1.546875q0 0.609375 -0.1875 1.03125q-0.1875 0.421875 -0.46875 0.703125q-0.265625 0.28125 -0.53125 0.453125q-0.25 0.15625 -0.375 0.234375q0.546875 0.1875 0.953125 0.453125q0.40625 0.265625 0.640625 0.75q0.234375 0.484375 0.234375 1.328125q0 1.078125 -0.359375 1.78125q-0.359375 0.703125 -1.140625 1.0625q-0.765625 0.34375 -1.953125 0.34375z" fill-rule="nonzero"/><path fill="#000000" d="m283.19986 275.91626q-0.609375 0 -1.265625 -0.078125q-0.65625 -0.0625 -1.234375 -0.15625q-0.578125 -0.09375 -0.96875 -0.1875l0.125 -1.046875q0.359375 0.0625 0.90625 0.140625q0.546875 0.078125 1.15625 0.140625q0.609375 0.0625 1.140625 0.0625q1.15625 0 1.703125 -0.5q0.5625 -0.515625 0.5625 -1.5q0 -0.734375 -0.296875 -1.140625q-0.28125 -0.421875 -0.765625 -0.609375q-0.484375 -0.1875 -1.078125 -0.203125l-2.140625 0l0 -1.109375l2.140625 0q0.390625 0 0.828125 -0.21875q0.453125 -0.234375 0.75 -0.65625q0.296875 -0.421875 0.296875 -1.015625q0 -0.890625 -0.484375 -1.28125q-0.484375 -0.390625 -1.640625 -0.390625q-0.53125 0 -1.078125 0.0625q-0.546875 0.046875 -1.046875 0.125q-0.484375 0.0625 -0.796875 0.140625l-0.109375 -1.015625q0.3125 -0.109375 0.8125 -0.203125q0.515625 -0.109375 1.09375 -0.171875q0.59375 -0.078125 1.171875 -0.078125q1.265625 0 2.0 0.296875q0.75 0.296875 1.078125 0.90625q0.328125 0.609375 0.328125 1.546875q0 0.609375 -0.1875 1.03125q-0.1875 0.421875 -0.46875 0.703125q-0.265625 0.28125 -0.53125 0.453125q-0.25 0.15625 -0.375 0.234375q0.546875 0.1875 0.953125 0.453125q0.40625 0.265625 0.640625 0.75q0.234375 0.484375 0.234375 1.328125q0 1.078125 -0.359375 1.78125q-0.359375 0.703125 -1.140625 1.0625q-0.765625 0.34375 -1.953125 0.34375zm4.881897 -0.15625l3.015625 -11.0625l2.765625 0l3.015625 11.0625l-1.28125 0l-0.78125 -2.796875l-4.671875 0l-0.796875 2.796875l-1.265625 0zm2.328125 -3.9375l4.125 0l-1.640625 -6.03125l-0.828125 0l-1.65625 6.03125z" fill-rule="nonzero"/><path fill="#000000" d="m475.04785 275.91626q-0.609375 0 -1.265625 -0.078125q-0.65625 -0.0625 -1.234375 -0.15625q-0.578125 -0.09375 -0.96875 -0.1875l0.125 -1.046875q0.359375 0.0625 0.90625 0.140625q0.546875 0.078125 1.15625 0.140625q0.609375 0.0625 1.140625 0.0625q1.15625 0 1.703125 -0.5q0.5625 -0.515625 0.5625 -1.5q0 -0.734375 -0.296875 -1.140625q-0.28125 -0.421875 -0.765625 -0.609375q-0.484375 -0.1875 -1.078125 -0.203125l-2.140625 0l0 -1.109375l2.140625 0q0.390625 0 0.828125 -0.21875q0.453125 -0.234375 0.75 -0.65625q0.296875 -0.421875 0.296875 -1.015625q0 -0.890625 -0.484375 -1.28125q-0.484375 -0.390625 -1.640625 -0.390625q-0.53125 0 -1.078125 0.0625q-0.546875 0.046875 -1.046875 0.125q-0.484375 0.0625 -0.796875 0.140625l-0.109375 -1.015625q0.3125 -0.109375 0.8125 -0.203125q0.515625 -0.109375 1.09375 -0.171875q0.59375 -0.078125 1.171875 -0.078125q1.265625 0 2.0 0.296875q0.75 0.296875 1.078125 0.90625q0.328125 0.609375 0.328125 1.546875q0 0.609375 -0.1875 1.03125q-0.1875 0.421875 -0.46875 0.703125q-0.265625 0.28125 -0.53125 0.453125q-0.25 0.15625 -0.375 0.234375q0.546875 0.1875 0.953125 0.453125q0.40625 0.265625 0.640625 0.75q0.234375 0.484375 0.234375 1.328125q0 1.078125 -0.359375 1.78125q-0.359375 0.703125 -1.140625 1.0625q-0.765625 0.34375 -1.953125 0.34375zm5.850647 -0.15625l0 -11.0625l4.03125 0q1.09375 0 1.8125 0.296875q0.734375 0.28125 1.109375 0.90625q0.375 0.625 0.375 1.625q0 0.703125 -0.171875 1.1875q-0.15625 0.484375 -0.46875 0.8125q-0.296875 0.3125 -0.75 0.53125q0.484375 0.171875 0.875 0.484375q0.390625 0.296875 0.625 0.8125q0.234375 0.5 0.234375 1.296875q0 0.875 -0.25 1.46875q-0.234375 0.59375 -0.703125 0.96875q-0.453125 0.359375 -1.078125 0.515625q-0.625 0.15625 -1.421875 0.15625l-4.21875 0zm1.28125 -1.125l2.890625 0q0.671875 0 1.15625 -0.171875q0.5 -0.171875 0.765625 -0.609375q0.28125 -0.453125 0.28125 -1.25q0 -0.625 -0.234375 -1.0q-0.234375 -0.390625 -0.59375 -0.578125q-0.34375 -0.1875 -0.734375 -0.25q-0.375 -0.078125 -0.703125 -0.078125l-2.828125 0l0 3.9375zm0 -5.046875l2.8125 0q0.6875 0 1.109375 -0.21875q0.421875 -0.21875 0.625 -0.640625q0.203125 -0.4375 0.203125 -1.09375q0 -0.953125 -0.5 -1.375q-0.5 -0.4375 -1.546875 -0.4375l-2.703125 0l0 3.765625z" fill-rule="nonzero"/><path fill="#000000" d="m667.61584 275.91626q-0.609375 0 -1.265625 -0.078125q-0.65625 -0.0625 -1.234375 -0.15625q-0.578125 -0.09375 -0.96875 -0.1875l0.125 -1.046875q0.359375 0.0625 0.90625 0.140625q0.546875 0.078125 1.15625 0.140625q0.609375 0.0625 1.140625 0.0625q1.15625 0 1.703125 -0.5q0.5625 -0.515625 0.5625 -1.5q0 -0.734375 -0.296875 -1.140625q-0.28125 -0.421875 -0.765625 -0.609375q-0.484375 -0.1875 -1.078125 -0.203125l-2.140625 0l0 -1.109375l2.140625 0q0.390625 0 0.828125 -0.21875q0.453125 -0.234375 0.75 -0.65625q0.296875 -0.421875 0.296875 -1.015625q0 -0.890625 -0.484375 -1.28125q-0.484375 -0.390625 -1.640625 -0.390625q-0.53125 0 -1.078125 0.0625q-0.546875 0.046875 -1.046875 0.125q-0.484375 0.0625 -0.796875 0.140625l-0.109375 -1.015625q0.3125 -0.109375 0.8125 -0.203125q0.515625 -0.109375 1.09375 -0.171875q0.59375 -0.078125 1.171875 -0.078125q1.265625 0 2.0 0.296875q0.75 0.296875 1.078125 0.90625q0.328125 0.609375 0.328125 1.546875q0 0.609375 -0.1875 1.03125q-0.1875 0.421875 -0.46875 0.703125q-0.265625 0.28125 -0.53125 0.453125q-0.25 0.15625 -0.375 0.234375q0.546875 0.1875 0.953125 0.453125q0.40625 0.265625 0.640625 0.75q0.234375 0.484375 0.234375 1.328125q0 1.078125 -0.359375 1.78125q-0.359375 0.703125 -1.140625 1.0625q-0.765625 0.34375 -1.953125 0.34375zm9.491272 0q-1.234375 0 -2.03125 -0.359375q-0.796875 -0.375 -1.25 -1.09375q-0.4375 -0.71875 -0.609375 -1.765625q-0.171875 -1.0625 -0.171875 -2.4375q0 -1.40625 0.171875 -2.484375q0.171875 -1.078125 0.609375 -1.796875q0.453125 -0.71875 1.25 -1.078125q0.796875 -0.375 2.03125 -0.375q0.578125 0 1.140625 0.0625q0.578125 0.046875 1.078125 0.140625q0.5 0.09375 0.84375 0.171875l-0.046875 1.0625q-0.359375 -0.0625 -0.875 -0.125q-0.5 -0.0625 -1.03125 -0.109375q-0.53125 -0.046875 -0.953125 -0.046875q-0.921875 0 -1.484375 0.28125q-0.5625 0.265625 -0.875 0.828125q-0.296875 0.5625 -0.421875 1.421875q-0.109375 0.859375 -0.109375 2.046875q0 1.140625 0.109375 2.0q0.125 0.859375 0.421875 1.421875q0.296875 0.546875 0.859375 0.828125q0.578125 0.265625 1.515625 0.265625q0.671875 0 1.46875 -0.09375q0.8125 -0.09375 1.375 -0.1875l0.046875 1.09375q-0.390625 0.078125 -0.90625 0.15625q-0.5 0.078125 -1.0625 0.125q-0.5625 0.046875 -1.09375 0.046875z" fill-rule="nonzero"/><path fill="#000000" d="m858.81586 275.91626q-0.609375 0 -1.265625 -0.078125q-0.65625 -0.0625 -1.234375 -0.15625q-0.578125 -0.09375 -0.96875 -0.1875l0.125 -1.046875q0.359375 0.0625 0.90625 0.140625q0.546875 0.078125 1.15625 0.140625q0.609375 0.0625 1.140625 0.0625q1.15625 0 1.703125 -0.5q0.5625 -0.515625 0.5625 -1.5q0 -0.734375 -0.296875 -1.140625q-0.28125 -0.421875 -0.765625 -0.609375q-0.484375 -0.1875 -1.078125 -0.203125l-2.140625 0l0 -1.109375l2.140625 0q0.390625 0 0.828125 -0.21875q0.453125 -0.234375 0.75 -0.65625q0.296875 -0.421875 0.296875 -1.015625q0 -0.890625 -0.484375 -1.28125q-0.484375 -0.390625 -1.640625 -0.390625q-0.53125 0 -1.078125 0.0625q-0.546875 0.046875 -1.046875 0.125q-0.484375 0.0625 -0.796875 0.140625l-0.109375 -1.015625q0.3125 -0.109375 0.8125 -0.203125q0.515625 -0.109375 1.09375 -0.171875q0.59375 -0.078125 1.171875 -0.078125q1.265625 0 2.0 0.296875q0.75 0.296875 1.078125 0.90625q0.328125 0.609375 0.328125 1.546875q0 0.609375 -0.1875 1.03125q-0.1875 0.421875 -0.46875 0.703125q-0.265625 0.28125 -0.53125 0.453125q-0.25 0.15625 -0.375 0.234375q0.546875 0.1875 0.953125 0.453125q0.40625 0.265625 0.640625 0.75q0.234375 0.484375 0.234375 1.328125q0 1.078125 -0.359375 1.78125q-0.359375 0.703125 -1.140625 1.0625q-0.765625 0.34375 -1.953125 0.34375zm5.850647 -0.15625l0 -11.0625l3.953125 0q1.21875 0 2.015625 0.40625q0.796875 0.390625 1.265625 1.109375q0.46875 0.703125 0.65625 1.6875q0.1875 0.984375 0.1875 2.15625q0 1.203125 -0.1875 2.234375q-0.171875 1.03125 -0.640625 1.828125q-0.46875 0.78125 -1.265625 1.21875q-0.796875 0.421875 -2.03125 0.421875l-3.953125 0zm1.28125 -1.140625l2.671875 0q0.859375 0 1.40625 -0.359375q0.546875 -0.375 0.84375 -1.015625q0.3125 -0.640625 0.421875 -1.453125q0.125 -0.8125 0.125 -1.734375q0 -0.890625 -0.125 -1.65625q-0.109375 -0.765625 -0.421875 -1.34375q-0.296875 -0.578125 -0.84375 -0.890625q-0.546875 -0.328125 -1.40625 -0.328125l-2.671875 0l0 8.78125z" fill-rule="nonzero"/><path fill="#000000" d="m97.249115 383.76l0 -2.046875l-5.09375 0l0 -1.0l2.984375 -7.515625l1.421875 0l-3.0625 7.375l3.75 0l0 -3.265625l1.28125 0l0 3.265625l1.328125 0l0 1.140625l-1.328125 0l0 2.046875l-1.28125 0z" fill-rule="nonzero"/><path fill="#000000" d="m284.4811 383.76l0 -2.046875l-5.09375 0l0 -1.0l2.984375 -7.515625l1.421875 0l-3.0625 7.375l3.75 0l0 -3.265625l1.28125 0l0 3.265625l1.328125 0l0 1.140625l-1.328125 0l0 2.046875l-1.28125 0zm3.600647 0l3.015625 -11.0625l2.765625 0l3.015625 11.0625l-1.28125 0l-0.78125 -2.796875l-4.671875 0l-0.796875 2.796875l-1.265625 0zm2.328125 -3.9375l4.125 0l-1.640625 -6.03125l-0.828125 0l-1.65625 6.03125z" fill-rule="nonzero"/><path fill="#000000" d="m476.3291 383.76l0 -2.046875l-5.09375 0l0 -1.0l2.984375 -7.515625l1.421875 0l-3.0625 7.375l3.75 0l0 -3.265625l1.28125 0l0 3.265625l1.328125 0l0 1.140625l-1.328125 0l0 2.046875l-1.28125 0zm4.569397 0l0 -11.0625l4.03125 0q1.09375 0 1.8125 0.296875q0.734375 0.28125 1.109375 0.90625q0.375 0.625 0.375 1.625q0 0.703125 -0.171875 1.1875q-0.15625 0.484375 -0.46875 0.8125q-0.296875 0.3125 -0.75 0.53125q0.484375 0.171875 0.875 0.484375q0.390625 0.296875 0.625 0.8125q0.234375 0.5 0.234375 1.296875q0 0.875 -0.25 1.46875q-0.234375 0.59375 -0.703125 0.96875q-0.453125 0.359375 -1.078125 0.515625q-0.625 0.15625 -1.421875 0.15625l-4.21875 0zm1.28125 -1.125l2.890625 0q0.671875 0 1.15625 -0.171875q0.5 -0.171875 0.765625 -0.609375q0.28125 -0.453125 0.28125 -1.25q0 -0.625 -0.234375 -1.0q-0.234375 -0.390625 -0.59375 -0.578125q-0.34375 -0.1875 -0.734375 -0.25q-0.375 -0.078125 -0.703125 -0.078125l-2.828125 0l0 3.9375zm0 -5.046875l2.8125 0q0.6875 0 1.109375 -0.21875q0.421875 -0.21875 0.625 -0.640625q0.203125 -0.4375 0.203125 -1.09375q0 -0.953125 -0.5 -1.375q-0.5 -0.4375 -1.546875 -0.4375l-2.703125 0l0 3.765625z" fill-rule="nonzero"/><path fill="#000000" d="m668.8971 383.76l0 -2.046875l-5.09375 0l0 -1.0l2.984375 -7.515625l1.421875 0l-3.0625 7.375l3.75 0l0 -3.265625l1.28125 0l0 3.265625l1.328125 0l0 1.140625l-1.328125 0l0 2.046875l-1.28125 0zm8.210022 0.15625q-1.234375 0 -2.03125 -0.359375q-0.796875 -0.375 -1.25 -1.09375q-0.4375 -0.71875 -0.609375 -1.765625q-0.171875 -1.0625 -0.171875 -2.4375q0 -1.40625 0.171875 -2.484375q0.171875 -1.078125 0.609375 -1.796875q0.453125 -0.71875 1.25 -1.078125q0.796875 -0.375 2.03125 -0.375q0.578125 0 1.140625 0.0625q0.578125 0.046875 1.078125 0.140625q0.5 0.09375 0.84375 0.171875l-0.046875 1.0625q-0.359375 -0.0625 -0.875 -0.125q-0.5 -0.0625 -1.03125 -0.109375q-0.53125 -0.046875 -0.953125 -0.046875q-0.921875 0 -1.484375 0.28125q-0.5625 0.265625 -0.875 0.828125q-0.296875 0.5625 -0.421875 1.421875q-0.109375 0.859375 -0.109375 2.046875q0 1.140625 0.109375 2.0q0.125 0.859375 0.421875 1.421875q0.296875 0.546875 0.859375 0.828125q0.578125 0.265625 1.515625 0.265625q0.671875 0 1.46875 -0.09375q0.8125 -0.09375 1.375 -0.1875l0.046875 1.09375q-0.390625 0.078125 -0.90625 0.15625q-0.5 0.078125 -1.0625 0.125q-0.5625 0.046875 -1.09375 0.046875z" fill-rule="nonzero"/><path fill="#000000" d="m860.0971 383.76l0 -2.046875l-5.09375 0l0 -1.0l2.984375 -7.515625l1.421875 0l-3.0625 7.375l3.75 0l0 -3.265625l1.28125 0l0 3.265625l1.328125 0l0 1.140625l-1.328125 0l0 2.046875l-1.28125 0zm4.569397 0l0 -11.0625l3.953125 0q1.21875 0 2.015625 0.40625q0.796875 0.390625 1.265625 1.109375q0.46875 0.703125 0.65625 1.6875q0.1875 0.984375 0.1875 2.15625q0 1.203125 -0.1875 2.234375q-0.171875 1.03125 -0.640625 1.828125q-0.46875 0.78125 -1.265625 1.21875q-0.796875 0.421875 -2.03125 0.421875l-3.953125 0zm1.28125 -1.140625l2.671875 0q0.859375 0 1.40625 -0.359375q0.546875 -0.375 0.84375 -1.015625q0.3125 -0.640625 0.421875 -1.453125q0.125 -0.8125 0.125 -1.734375q0 -0.890625 -0.125 -1.65625q-0.109375 -0.765625 -0.421875 -1.34375q-0.296875 -0.578125 -0.84375 -0.890625q-0.546875 -0.328125 -1.40625 -0.328125l-2.671875 0l0 8.78125z" fill-rule="nonzero"/><path fill="#000000" d="m96.030365 491.90063q-0.59375 0 -1.25 -0.078125q-0.65625 -0.078125 -1.265625 -0.171875q-0.59375 -0.109375 -0.984375 -0.203125l0.140625 -1.03125q0.390625 0.0625 0.953125 0.15625q0.5625 0.078125 1.15625 0.140625q0.609375 0.0625 1.125 0.0625q1.078125 0 1.703125 -0.625q0.640625 -0.625 0.640625 -1.8125q0 -0.796875 -0.28125 -1.25q-0.265625 -0.46875 -0.765625 -0.65625q-0.484375 -0.1875 -1.140625 -0.1875q-0.484375 0 -0.96875 0.09375q-0.46875 0.09375 -0.875 0.234375q-0.40625 0.140625 -0.65625 0.296875l-0.859375 -0.1875l0.28125 -5.484375l6.15625 0l0 1.15625l-5.09375 0l-0.296875 3.375q0.28125 -0.125 0.671875 -0.265625q0.40625 -0.15625 0.859375 -0.25q0.46875 -0.109375 0.921875 -0.109375q1.046875 0 1.796875 0.3125q0.75 0.3125 1.15625 1.0q0.421875 0.671875 0.421875 1.8125q0 1.21875 -0.421875 2.03125q-0.421875 0.8125 -1.21875 1.234375q-0.796875 0.40625 -1.90625 0.40625z" fill-rule="nonzero"/><path fill="#000000" d="m283.26236 491.90063q-0.59375 0 -1.25 -0.078125q-0.65625 -0.078125 -1.265625 -0.171875q-0.59375 -0.109375 -0.984375 -0.203125l0.140625 -1.03125q0.390625 0.0625 0.953125 0.15625q0.5625 0.078125 1.15625 0.140625q0.609375 0.0625 1.125 0.0625q1.078125 0 1.703125 -0.625q0.640625 -0.625 0.640625 -1.8125q0 -0.796875 -0.28125 -1.25q-0.265625 -0.46875 -0.765625 -0.65625q-0.484375 -0.1875 -1.140625 -0.1875q-0.484375 0 -0.96875 0.09375q-0.46875 0.09375 -0.875 0.234375q-0.40625 0.140625 -0.65625 0.296875l-0.859375 -0.1875l0.28125 -5.484375l6.15625 0l0 1.15625l-5.09375 0l-0.296875 3.375q0.28125 -0.125 0.671875 -0.265625q0.40625 -0.15625 0.859375 -0.25q0.46875 -0.109375 0.921875 -0.109375q1.046875 0 1.796875 0.3125q0.75 0.3125 1.15625 1.0q0.421875 0.671875 0.421875 1.8125q0 1.21875 -0.421875 2.03125q-0.421875 0.8125 -1.21875 1.234375q-0.796875 0.40625 -1.90625 0.40625zm4.819397 -0.140625l3.015625 -11.0625l2.765625 0l3.015625 11.0625l-1.28125 0l-0.78125 -2.796875l-4.671875 0l-0.796875 2.796875l-1.265625 0zm2.328125 -3.9375l4.125 0l-1.640625 -6.03125l-0.828125 0l-1.65625 6.03125z" fill-rule="nonzero"/><path fill="#000000" d="m475.11035 491.90063q-0.59375 0 -1.25 -0.078125q-0.65625 -0.078125 -1.265625 -0.171875q-0.59375 -0.109375 -0.984375 -0.203125l0.140625 -1.03125q0.390625 0.0625 0.953125 0.15625q0.5625 0.078125 1.15625 0.140625q0.609375 0.0625 1.125 0.0625q1.078125 0 1.703125 -0.625q0.640625 -0.625 0.640625 -1.8125q0 -0.796875 -0.28125 -1.25q-0.265625 -0.46875 -0.765625 -0.65625q-0.484375 -0.1875 -1.140625 -0.1875q-0.484375 0 -0.96875 0.09375q-0.46875 0.09375 -0.875 0.234375q-0.40625 0.140625 -0.65625 0.296875l-0.859375 -0.1875l0.28125 -5.484375l6.15625 0l0 1.15625l-5.09375 0l-0.296875 3.375q0.28125 -0.125 0.671875 -0.265625q0.40625 -0.15625 0.859375 -0.25q0.46875 -0.109375 0.921875 -0.109375q1.046875 0 1.796875 0.3125q0.75 0.3125 1.15625 1.0q0.421875 0.671875 0.421875 1.8125q0 1.21875 -0.421875 2.03125q-0.421875 0.8125 -1.21875 1.234375q-0.796875 0.40625 -1.90625 0.40625zm5.788147 -0.140625l0 -11.0625l4.03125 0q1.09375 0 1.8125 0.296875q0.734375 0.28125 1.109375 0.90625q0.375 0.625 0.375 1.625q0 0.703125 -0.171875 1.1875q-0.15625 0.484375 -0.46875 0.8125q-0.296875 0.3125 -0.75 0.53125q0.484375 0.171875 0.875 0.484375q0.390625 0.296875 0.625 0.8125q0.234375 0.5 0.234375 1.296875q0 0.875 -0.25 1.46875q-0.234375 0.59375 -0.703125 0.96875q-0.453125 0.359375 -1.078125 0.515625q-0.625 0.15625 -1.421875 0.15625l-4.21875 0zm1.28125 -1.125l2.890625 0q0.671875 0 1.15625 -0.171875q0.5 -0.171875 0.765625 -0.609375q0.28125 -0.453125 0.28125 -1.25q0 -0.625 -0.234375 -1.0q-0.234375 -0.390625 -0.59375 -0.578125q-0.34375 -0.1875 -0.734375 -0.25q-0.375 -0.078125 -0.703125 -0.078125l-2.828125 0l0 3.9375zm0 -5.046875l2.8125 0q0.6875 0 1.109375 -0.21875q0.421875 -0.21875 0.625 -0.640625q0.203125 -0.4375 0.203125 -1.09375q0 -0.953125 -0.5 -1.375q-0.5 -0.4375 -1.546875 -0.4375l-2.703125 0l0 3.765625z" fill-rule="nonzero"/><path fill="#000000" d="m667.67834 491.90063q-0.59375 0 -1.25 -0.078125q-0.65625 -0.078125 -1.265625 -0.171875q-0.59375 -0.109375 -0.984375 -0.203125l0.140625 -1.03125q0.390625 0.0625 0.953125 0.15625q0.5625 0.078125 1.15625 0.140625q0.609375 0.0625 1.125 0.0625q1.078125 0 1.703125 -0.625q0.640625 -0.625 0.640625 -1.8125q0 -0.796875 -0.28125 -1.25q-0.265625 -0.46875 -0.765625 -0.65625q-0.484375 -0.1875 -1.140625 -0.1875q-0.484375 0 -0.96875 0.09375q-0.46875 0.09375 -0.875 0.234375q-0.40625 0.140625 -0.65625 0.296875l-0.859375 -0.1875l0.28125 -5.484375l6.15625 0l0 1.15625l-5.09375 0l-0.296875 3.375q0.28125 -0.125 0.671875 -0.265625q0.40625 -0.15625 0.859375 -0.25q0.46875 -0.109375 0.921875 -0.109375q1.046875 0 1.796875 0.3125q0.75 0.3125 1.15625 1.0q0.421875 0.671875 0.421875 1.8125q0 1.21875 -0.421875 2.03125q-0.421875 0.8125 -1.21875 1.234375q-0.796875 0.40625 -1.90625 0.40625zm9.428772 0.015625q-1.234375 0 -2.03125 -0.359375q-0.796875 -0.375 -1.25 -1.09375q-0.4375 -0.71875 -0.609375 -1.765625q-0.171875 -1.0625 -0.171875 -2.4375q0 -1.40625 0.171875 -2.484375q0.171875 -1.078125 0.609375 -1.796875q0.453125 -0.71875 1.25 -1.078125q0.796875 -0.375 2.03125 -0.375q0.578125 0 1.140625 0.0625q0.578125 0.046875 1.078125 0.140625q0.5 0.09375 0.84375 0.171875l-0.046875 1.0625q-0.359375 -0.0625 -0.875 -0.125q-0.5 -0.0625 -1.03125 -0.109375q-0.53125 -0.046875 -0.953125 -0.046875q-0.921875 0 -1.484375 0.28125q-0.5625 0.265625 -0.875 0.828125q-0.296875 0.5625 -0.421875 1.421875q-0.109375 0.859375 -0.109375 2.046875q0 1.140625 0.109375 2.0q0.125 0.859375 0.421875 1.421875q0.296875 0.546875 0.859375 0.828125q0.578125 0.265625 1.515625 0.265625q0.671875 0 1.46875 -0.09375q0.8125 -0.09375 1.375 -0.1875l0.046875 1.09375q-0.390625 0.078125 -0.90625 0.15625q-0.5 0.078125 -1.0625 0.125q-0.5625 0.046875 -1.09375 0.046875z" fill-rule="nonzero"/><path fill="#000000" d="m858.87836 491.90063q-0.59375 0 -1.25 -0.078125q-0.65625 -0.078125 -1.265625 -0.171875q-0.59375 -0.109375 -0.984375 -0.203125l0.140625 -1.03125q0.390625 0.0625 0.953125 0.15625q0.5625 0.078125 1.15625 0.140625q0.609375 0.0625 1.125 0.0625q1.078125 0 1.703125 -0.625q0.640625 -0.625 0.640625 -1.8125q0 -0.796875 -0.28125 -1.25q-0.265625 -0.46875 -0.765625 -0.65625q-0.484375 -0.1875 -1.140625 -0.1875q-0.484375 0 -0.96875 0.09375q-0.46875 0.09375 -0.875 0.234375q-0.40625 0.140625 -0.65625 0.296875l-0.859375 -0.1875l0.28125 -5.484375l6.15625 0l0 1.15625l-5.09375 0l-0.296875 3.375q0.28125 -0.125 0.671875 -0.265625q0.40625 -0.15625 0.859375 -0.25q0.46875 -0.109375 0.921875 -0.109375q1.046875 0 1.796875 0.3125q0.75 0.3125 1.15625 1.0q0.421875 0.671875 0.421875 1.8125q0 1.21875 -0.421875 2.03125q-0.421875 0.8125 -1.21875 1.234375q-0.796875 0.40625 -1.90625 0.40625zm5.788147 -0.140625l0 -11.0625l3.953125 0q1.21875 0 2.015625 0.40625q0.796875 0.390625 1.265625 1.109375q0.46875 0.703125 0.65625 1.6875q0.1875 0.984375 0.1875 2.15625q0 1.203125 -0.1875 2.234375q-0.171875 1.03125 -0.640625 1.828125q-0.46875 0.78125 -1.265625 1.21875q-0.796875 0.421875 -2.03125 0.421875l-3.953125 0zm1.28125 -1.140625l2.671875 0q0.859375 0 1.40625 -0.359375q0.546875 -0.375 0.84375 -1.015625q0.3125 -0.640625 0.421875 -1.453125q0.125 -0.8125 0.125 -1.734375q0 -0.890625 -0.125 -1.65625q-0.109375 -0.765625 -0.421875 -1.34375q-0.296875 -0.578125 -0.84375 -0.890625q-0.546875 -0.328125 -1.40625 -0.328125l-2.671875 0l0 8.78125z" fill-rule="nonzero"/></g></svg>